<?xml version="1.0" encoding="UTF-8"?>
<svg id="Layer_2" data-name="Layer 2" xmlns="http://www.w3.org/2000/svg" viewBox="0 0 118.24 183.62">
  <defs>
    <style>
      .cls-1, .cls-2 {
        fill: #fff;
      }

      .cls-2, .cls-3 {
        fill-rule: evenodd;
      }

      .cls-3, .cls-4 {
        fill: #fbad18;
      }
    </style>
  </defs>
  <g id="Layer_1-2" data-name="Layer 1">
    <g>
      <path class="cls-1" d="m107.97,5.54V0h3.83v7.07c0,1.35-.13,2.66-.39,3.95-.26,1.29-.83,2.44-1.71,3.46-.75.85-1.62,1.51-2.63,1.98-1.01.47-2.04.77-3.1.9-.16,0-.32,0-.49.02-.17.01-.33.02-.49.02-.2,0-.41,0-.61-.02-.2-.01-.41-.03-.61-.06-1.04-.1-2.06-.39-3.05-.86-.99-.48-1.86-1.14-2.61-1.98-.88-1.02-1.46-2.17-1.73-3.46-.27-1.28-.41-2.6-.41-3.95l-.03-7.07h3.87v5.54c.02.07.03.15.03.24v1.07c0,.5.03.98.1,1.46.07.48.21.92.44,1.35.5.92,1.16,1.54,2,1.85.84.31,1.71.47,2.61.47.88-.03,1.72-.2,2.53-.52.8-.33,1.44-.92,1.92-1.8.23-.43.37-.87.44-1.35.07-.48.11-.96.14-1.46v-1.31h-.03Zm-16.07,15.23v5.46h-4.44v-5.46h4.44Zm19.9,0v5.46h-17.87v-5.46h17.87Zm-24.34,27.99v-5.16h6.48v-4.64c.05-2.54.52-4.55,1.42-6.01.9-1.46,2.62-2.2,5.15-2.22h11.29v5.24h-10.78c-1.13,0-1.93.25-2.41.75-.47.5-.71,1.41-.71,2.73l-.03,4.15h13.93v5.16h-24.34Zm10.34,17.62h10.17c.02-.18.03-.34.03-.51v-.51c.02-2.4-.2-4.34-.66-5.84-.46-1.5-2.11-2.21-4.93-2.13-2.37.07-3.74.82-4.1,2.24-.36,1.42-.53,3.13-.51,5.12.02.28.03.55.03.8v.81h-.03Zm-3.87,5.2v-10.03c.02-2.94.79-5.24,2.3-6.9,1.51-1.66,3.58-2.55,6.21-2.68,1.2-.07,2.37.05,3.53.37,1.15.33,2.19.9,3.12,1.72,1.17,1,1.92,2.17,2.24,3.52.32,1.35.47,2.78.47,4.3v4.49h6.44v5.2h-24.31Zm14.28,16.46v-6.51h-3.7v6.14s.03.1.03.15v.15c.02.7.14,1.35.36,1.95.21.6.72.91,1.51.93.88.05,1.4-.22,1.56-.8.16-.59.25-1.25.27-2h-.03Zm-14.28,6.92v-10.66c.02-1.15.14-2.25.36-3.31.22-1.06.71-2.01,1.47-2.86.63-.72,1.38-1.23,2.24-1.51.86-.29,1.74-.43,2.65-.43h11.15v13.99c0,2.02-.5,3.57-1.51,4.64-1.01,1.07-2.4,1.56-4.19,1.46-2.15-.18-3.54-1.01-4.17-2.51-.63-1.5-.95-3.28-.95-5.35l-.03-6.85c-1.47-.07-2.38.34-2.75,1.25-.36.91-.54,2.06-.54,3.46l-.03,8.68h-3.7Zm0,18v-8.76c.02-2.82.61-4.45,1.76-4.9,1.15-.45,2.7-.66,4.64-.64h1.12l-.03,4.98h-.75c-1.65,0-2.61.14-2.88.43-.27.29-.41,1.33-.41,3.12v.56h14.41v5.2h-17.87Zm7.73,17.47h-4.31v-13.36h14.44v12.16c0,1.55-.12,3.04-.36,4.49-.24,1.45-.82,2.8-1.75,4.04-1.11,1.5-2.46,2.54-4.05,3.14-1.59.6-3.23.92-4.9.97-.36.03-.71.03-1.05.02-.34-.01-.68-.03-1.02-.05-3.84-.27-6.67-1.43-8.48-3.46-1.81-2.03-2.71-5.08-2.71-9.15l-.03-12.16h4.2v12.16c.02,2.67.88,4.4,2.56,5.18,1.68.79,3.53,1.18,5.54,1.18h.1c2.06,0,3.83-.39,5.32-1.18,1.49-.78,2.24-2.51,2.24-5.18l-.03-6.36h-5.73v7.56Z"/>
      <path class="cls-3" d="m81.51,33.13c-2.49,1.22-5.06,2.54-7.84,4.03-1.6.86-2.96,1.55-4.1,2.01-1.59-3.8-7.6-7.96-11.06-10.11l-11.73-6.8c-1.41-1.16-.3.17-1.36-1.77,10.28-1.85,20.94-1.92,32.22-1.45.84.04,2.19.11,3.86.2v13.9Z"/>
      <path class="cls-3" d="m81.51,124.58c-1.18.03-2.34.02-3.48-.03-5.05-.24-15.64-1.97-21.29-6.88-6.91-6.02-10.07-11.6-11.26-18.29-.58-3.28-.69-6.83-.53-10.83.24-6.23,1.98-14.4,5.77-21.24,8.98,1.88,11.04,2.29,22.14,2.9,2.49.14,5.44.27,8.65.44v11.83l-11.45,10.49,11.45,10.49v21.14Z"/>
      <path class="cls-3" d="m81.51,59.73c-8.91-.36-17.33-.73-23.6-2.2,2.59-3,9.25-8.24,11.96-9.17.47.49,1.38,1.79,3.65,2.46.54-1.77.46-3.61-.23-5.52,2.39-.95,5.21-2.24,8.22-3.67v18.1Z"/>
      <path class="cls-2" d="m7.01,155.33H0v17.84c0,5.72,3.21,10.4,11.45,10.4h16.55v-5.99H11.45c-1.59,0-4.44-1.4-4.44-4.41v-17.84Z"/>
      <polygon class="cls-2" points="85.9 155.21 93.26 155.21 93.26 168.52 104.3 155.13 112.75 155.13 100.99 169.42 112.33 183.52 103.77 183.52 93.26 170.54 93.26 183.52 85.9 183.52 85.9 155.21"/>
      <rect class="cls-4" x="33.31" y="155.08" width="7.8" height="7.09"/>
      <path class="cls-2" d="m47,155.5h18.97c6.58,0,13.86.37,13.73,10.69v17.31l-7.3.11v-18.21c-.02-2.46-2.59-4.35-5.22-4.34h-12.82v22.54h-7.37v-28.12Z"/>
      <rect class="cls-1" x="33.52" y="164.26" width="7.36" height="19.1"/>
      <path class="cls-2" d="m0,.19h81.51v8.41c-9.03-.6-18.02-.7-26.66.1-18.3,1.68-16.31,15.47-12.55,19.85,3.45,4.02,14.28,8.84,19.83,12.55l2.18,1.88c.05-.09.19.23.28.34-.69.84-7.87,6.53-12.14,12.68l-14.24-5.16c2.71,12.48,4.31,11.25,9.06,14.32v.26c-6.93,11.98-11.57,33.42-3.86,50.47.94,2.17,2.64,5.77,5.3,8.39,8.13,8,18.79,10.38,25.95,10.91,2.31.04,4.6-.07,6.85-.31v8.25H0V.19Z"/>
    </g>
  </g>
</svg>