<?xml version="1.0" encoding="UTF-8"?>
<svg id="Layer_2" data-name="Layer 2" xmlns="http://www.w3.org/2000/svg" viewBox="0 0 299.39 299.39">
  <defs>
    <style>
      .cls-1 {
        fill: #efa420;
      }
    </style>
  </defs>
  <g id="Layer_1-2" data-name="Layer 1">
    <rect class="cls-1" width="299.39" height="299.39" rx="10.98" ry="10.98"/>
    <g>
      <path d="M153.85,219.9l16.75,2.26c11.19.7,23.09-6.39,33.18-10.94,2.69-1.22,9-4.81,11.59-4.9,4.84-.18,7.52,5.85,4.12,9.22-11.09,7.26-21.93,15-33.35,21.76-4.25,2.52-8.22,5.33-13.29,5.62-14.96.84-30.75-.21-45.76-.42-6.19-.09-7.31,1.76-11.7,5.19-.22.17-.25.46-.51.1l-6.17-35.36c4.29-1.58,8.58-3.17,12.9-4.68.28-.1.27-.36.44-.42,1.81-.63,5.29-1.11,6.82-1.88.24-.12.34-.31.34-.57.33-.11.1.41.31.42,3.98-.99,8.09-1.57,12.19-1.84,9.8-.63,19.67-.51,29.47-1.01,4.4,1.54,5.18,8.12.27,9.6l-17.45,4.51c-.42.31-.13,2.68-.17,3.33Z"/>
      <path d="M138.37,157.29l-5.39-1.62c-4.71-1.84-8.2-4.88-9.02-10.1-.54-3.49.43-5.7,3.66-7.27,9.47-4.6,22.9,6.03,28.61,13.02.31.38.42,1.21.86.75.62-.65.78-1.35,1.75-1.87,2.63-1.42,5.32-.4,6.88,2,3.15-4.1,7.16-7.64,11.51-10.45,5.19-3.36,12.42-6.62,18.35-3.13,7.68,4.52.47,15.75-6.32,17.19l-5.13,1.47h28.06v19.52h-43.72v-19.32c-.67.31-2.72-1.32-2.84-1.22s-.08,1.05-.92,1.22c-.77.15-6.13.15-6.91,0-.65-.12-.54-.84-1.02-1.22-.62.74-1.65.91-2.51,1.24l-.03,19.29h-43.93v-19.52h28.06ZM186.92,139.86c-4.89.59-13.75,7.1-17.14,10.72-1.34,1.43-3.39,3.6-.85,4.92,4.95,2.59,17.56-.37,22.09-3.62,3.04-2.19,6.49-7.18,2.87-10.36-1.91-1.67-4.52-1.96-6.96-1.67ZM152.73,150.66c-3.77-3.77-12.98-9.94-18.32-10.26-4.93-.3-8.58,2.29-6.25,7.47,3.11,6.91,18.25,10.09,24.69,7.94,3.68-1.23,1.7-3.32-.12-5.15Z"/>
      <polygon points="113.76 259.58 78.47 265.89 78.37 216.27 104.82 211.67 113.76 259.58"/>
      <path d="M206.09,179.86v27.86l-22.23,10c-4.06,1.8-8.41,2.49-12.86,2.21-.65-.04-2.42-.1-2.53-.72-.22-1.17.15-2.92,0-4.16,4.9-.61,9.32-3.01,8.51-8.64-.34-2.33-3-6.22-5.57-6.22h-2.95v-11.79l13.73,13.42.95-6.06,6.07-1.05-14.64-14.84h31.52Z"/>
      <path d="M147.72,179.86l-14.64,14.84,6.07,1.05.64,5.46c.49.04.97-.06,1.33-.41l12.7-12.61v12.61l-12.31.4c-.69-.13-1.05.63-1.42.82-.46.23-.23-.51-.31-.59-.23-.2-5.15.52-5.92.65-5.96.99-11.62,2.94-17.25,5.02v-27.25h31.11Z"/>
    </g>
    <g>
      <path d="M129.68,43.87v-4.44h12.48v14.89h-11.35c-2.09,0-3.7-.17-4.82-.51-1.12-.34-2.17-.9-3.15-1.69-1.29-1.02-2.25-2.36-2.89-4-.64-1.64-.96-3.61-.96-5.9,0-4.43.96-7.7,2.89-9.82s4.91-3.18,8.94-3.18h11.35v4.32h-11.35c-2.07,0-3.58.67-4.53,2.01-.95,1.34-1.43,3.48-1.43,6.42,0,2.74.47,4.73,1.42,5.96.94,1.23,2.46,1.84,4.54,1.84h5.94v-5.91h-7.07Z"/>
      <path d="M151.13,33.8h-5.11v-4.58h5.11v4.58ZM151.13,54.32h-5.11v-18.42h5.11v18.42Z"/>
      <path d="M157,39.57h-3.5v-3.67h3.5v-1.9c0-1.88.35-3.14,1.04-3.8.69-.65,2.03-.98,4-.98h4.61v3.55h-2.3c-.83,0-1.42.13-1.78.38-.35.26-.53.68-.53,1.27v1.47h4.61v3.67h-4.61v14.75h-5.04v-14.75Z"/>
      <path d="M167.21,35.9h3.43v-6.68h4.87v6.68h5.14v3.67h-5.14v7.44c0,1.37.23,2.31.7,2.84.47.53,1.28.79,2.44.79h2v3.67h-4.44c-1.8,0-3.18-.5-4.13-1.49s-1.43-2.42-1.43-4.28v-8.98h-3.43v-3.67Z"/>
      <path d="M110.28,96.28h-5.52v-25.1h5.52v25.1Z"/>
      <path d="M113.18,77.86h3.43v-6.68h4.87v6.68h5.14v3.67h-5.14v7.44c0,1.37.23,2.31.7,2.84.47.53,1.28.79,2.44.79h2v3.67h-4.44c-1.8,0-3.18-.5-4.13-1.49s-1.43-2.42-1.43-4.28v-8.98h-3.43v-3.67Z"/>
      <path d="M137.7,96.28c-3.05,0-5.36-.78-6.92-2.33-1.57-1.55-2.35-3.84-2.35-6.87s.79-5.32,2.36-6.88c1.57-1.56,3.88-2.34,6.92-2.34h7.1v3.84h-6.44c-1.76,0-2.95.25-3.56.75-.61.5-.94,1.41-.98,2.71h10.98v3.84h-10.98c.05,1.32.35,2.22.91,2.71.56.48,1.76.73,3.59.73h6.47v3.84h-7.1Z"/>
      <path d="M147.91,77.86h18.68c2.71,0,4.66.53,5.86,1.59,1.19,1.06,1.79,2.78,1.79,5.16v11.68h-4.9v-11.05c0-1.35-.21-2.25-.62-2.68-.41-.43-1.25-.65-2.53-.65h-2.73v14.38h-4.97v-14.38h-5.69v14.38h-4.9v-18.42Z"/>
      <path d="M178.28,92.44h10.26c.91,0,1.57-.14,1.99-.43.42-.28.62-.74.62-1.37s-.21-1.08-.63-1.37-1.08-.44-1.98-.44h-4.2c-2.49,0-4.18-.38-5.05-1.14-.88-.76-1.31-2.12-1.31-4.06s.53-3.44,1.59-4.37,2.7-1.4,4.92-1.4h10.45v3.84h-8.59c-1.4,0-2.31.12-2.73.37s-.63.68-.63,1.31c0,.57.19.99.56,1.25.37.27.95.4,1.75.4h4.4c2.01,0,3.55.47,4.61,1.41,1.06.94,1.59,2.3,1.59,4.07s-.47,3.1-1.41,4.17c-.94,1.07-2.15,1.6-3.63,1.6h-12.57v-3.84Z"/>
    </g>
  </g>
</svg>