<?xml version="1.0" encoding="UTF-8"?>
<svg id="Layer_2" data-name="Layer 2" xmlns="http://www.w3.org/2000/svg" viewBox="0 0 299.39 299.39">
  <defs>
    <style>
      .cls-1 {
        fill: #efa420;
      }

      .cls-2 {
        fill: none;
        stroke: #000;
        stroke-miterlimit: 10;
        stroke-width: 5px;
      }
    </style>
  </defs>
  <g id="Layer_1-2" data-name="Layer 1">
    <rect class="cls-1" width="299.39" height="299.39" rx="10.98" ry="10.98"/>
    <g>
      <path d="M127.23,54.32c-2.35,0-4.09-.2-5.22-.59-1.14-.39-2.16-1.07-3.06-2.04-.83-.87-1.42-1.84-1.76-2.94s-.51-2.63-.51-4.61v-14.92h5.28v14.75c0,1.47.07,2.5.2,3.1s.36,1.08.67,1.44c.5.59,1.12,1.01,1.84,1.26.73.25,1.74.38,3.02.38h6.21v4.17h-6.68Z"/>
      <path d="M147.06,33.6c-1.91,0-3.35.48-4.32,1.43-.97.96-1.51,2.42-1.61,4.39l14.6.02v4.37h-14.63c.01,2.19.47,3.76,1.39,4.71.92.96,2.44,1.43,4.58,1.43h8.66v4.37h-8.92c-1.97,0-3.52-.17-4.64-.5-1.13-.33-2.18-.9-3.17-1.7-1.29-1.02-2.25-2.36-2.89-4-.64-1.64-.96-3.61-.96-5.9,0-4.44.96-7.71,2.88-9.83,1.92-2.11,4.9-3.17,8.94-3.17h8.77v4.37h-8.66Z"/>
      <path d="M160.35,29.22h11.49c4.04,0,7.02,1.06,8.95,3.17,1.92,2.11,2.88,5.39,2.88,9.83,0,2.29-.32,4.25-.96,5.9-.64,1.64-1.61,2.98-2.89,4-.99.8-2.05,1.36-3.18,1.7-1.13.34-2.67.5-4.64.5h-11.64v-25.1ZM171.74,33.6h-6.11v16.36h6.11c2.33,0,3.94-.59,4.83-1.76.89-1.17,1.33-3.31,1.33-6.42s-.44-5.23-1.33-6.41c-.89-1.18-2.5-1.77-4.83-1.77Z"/>
      <path d="M113.97,75.66h-13.04c-1.4,0-2.43.26-3.08.79-.65.52-.98,1.35-.98,2.49,0,.91.28,1.59.84,2.05s1.39.68,2.49.68h6.98c2.89,0,4.95.55,6.17,1.64,1.22,1.09,1.83,2.91,1.83,5.46s-.71,4.48-2.12,5.69-3.63,1.82-6.66,1.82h-14.05v-4.47h13.22c1.5,0,2.56-.22,3.18-.66.61-.44.92-1.16.92-2.18s-.28-1.79-.85-2.24c-.56-.44-1.53-.67-2.89-.67h-6.23c-2.89,0-5-.58-6.34-1.73s-2.01-2.98-2.01-5.47c0-2.66.7-4.61,2.11-5.84,1.41-1.23,3.64-1.84,6.7-1.84h13.81v4.47Z"/>
      <path d="M128.68,92.34h5.17v3.94h-6.61c-1.67,0-3.05-.17-4.12-.52-1.08-.35-2.01-.91-2.81-1.68-.85-.84-1.52-1.87-2.01-3.08-.48-1.21-.73-2.5-.73-3.85,0-1.42.24-2.75.72-3.99.48-1.24,1.15-2.27,2.01-3.1.81-.77,1.76-1.33,2.84-1.68,1.09-.35,2.45-.52,4.09-.52h6.61v3.98h-5.17c-2.29,0-3.86.4-4.73,1.19s-1.3,2.17-1.3,4.12c0,1.13.18,2.06.53,2.8.35.74.9,1.34,1.64,1.79.36.22.79.37,1.27.46.48.09,1.35.14,2.59.14Z"/>
      <path d="M137.07,77.86h8.18c1.91,0,3.25.34,4.02,1.03.77.69,1.15,1.89,1.15,3.61v3.07h-4.64v-2.37c0-.72-.13-1.2-.38-1.44-.26-.24-.84-.37-1.75-.37h-1.71v14.89h-4.87v-18.42Z"/>
      <path d="M161.72,96.28c-3.05,0-5.36-.78-6.92-2.33-1.57-1.55-2.35-3.84-2.35-6.87s.79-5.32,2.36-6.88c1.57-1.56,3.88-2.34,6.92-2.34h7.1v3.84h-6.44c-1.76,0-2.95.25-3.56.75-.61.5-.94,1.41-.98,2.71h10.98v3.84h-10.98c.05,1.32.35,2.22.91,2.71.56.48,1.76.73,3.59.73h6.47v3.84h-7.1Z"/>
      <path d="M180.14,96.28c-3.05,0-5.36-.78-6.92-2.33-1.57-1.55-2.35-3.84-2.35-6.87s.79-5.32,2.36-6.88c1.57-1.56,3.88-2.34,6.92-2.34h7.1v3.84h-6.44c-1.76,0-2.95.25-3.56.75-.61.5-.94,1.41-.98,2.71h10.98v3.84h-10.98c.05,1.32.35,2.22.91,2.71.56.48,1.76.73,3.59.73h6.47v3.84h-7.1Z"/>
      <path d="M190.35,77.86h9.15c2.77,0,4.74.52,5.92,1.56,1.18,1.04,1.78,2.77,1.78,5.18v11.68h-4.87v-11.08c0-1.38-.21-2.27-.64-2.68-.43-.41-1.28-.61-2.57-.61h-3.91v14.38h-4.87v-18.42Z"/>
    </g>
    <g>
      <g>
        <path d="M197.13,229.1c9.05-1.83,10.05,11.06,3.22,12.47-9.05,1.86-11.02-10.9-3.22-12.47Z"/>
        <path d="M58.02,160.6c10.35-2.27,11.09,11.02,3.03,12.25-7.29,1.11-10.62-10.59-3.03-12.25Z"/>
        <path d="M203.49,225.94c-4.91,6.07-15.36-1.66-9.81-8.45s15.07,1.95,9.81,8.45Z"/>
        <path d="M124.43,239.64c-4.99-6.19,4.45-15.06,9.81-8.45,5.83,7.18-5.11,14.27-9.81,8.45Z"/>
        <path d="M64.41,189.02c5.63,4.53-.93,15.25-7.95,10.2-7.19-5.17,1.51-15.39,7.95-10.2Z"/>
        <path d="M71.74,188.01c9.49-2.12,11.61,11.62,2.31,12.43-6.88.6-9.55-10.81-2.31-12.43Z"/>
        <path d="M209.91,201.71c8.63-2.59,12.22,10.83,3.25,12.47-7.88,1.45-10.05-10.43-3.25-12.47Z"/>
        <path d="M165.6,161.61c6.51-5.25,15.22,4.3,8.46,9.8s-14.64-4.81-8.46-9.8Z"/>
        <path d="M85.47,229.1c8.26-2.41,11.55,10.8,3.24,12.48-9.1,1.83-9.8-10.56-3.24-12.48Z"/>
        <path d="M237.39,215.4c9.03-1.86,11.04,10.86,3.23,12.47-8.11,1.66-10.59-10.95-3.23-12.47Z"/>
        <path d="M230.04,161.61c6.18,4.98-1.95,15.09-8.46,9.8-6.76-5.5,1.95-15.05,8.46-9.8Z"/>
        <path d="M209.92,188c9.91-2.94,11.13,11.25,3.27,12.45s-10-10.46-3.27-12.45Z"/>
        <path d="M210.85,242.79c8.4-1.52,10.41,11.29,2.48,12.66-8.36,1.45-10.5-11.21-2.48-12.66Z"/>
        <path d="M128.49,242.79c8.14-1.47,10.42,11.75,1.53,12.65s-9.09-11.28-1.53-12.65Z"/>
        <path d="M72.67,242.79c8.34-1.53,9.99,11.38,2.48,12.66-8.39,1.43-10.96-11.1-2.48-12.66Z"/>
        <path d="M127.58,201.69c9.36-1.93,10.97,11.11,3.22,12.49-7.99,1.42-10.68-10.95-3.22-12.49Z"/>
        <path d="M210.85,229.08c8.61-1.55,10.19,11.56,2.48,12.68-8.28,1.2-10.56-11.22-2.48-12.68Z"/>
        <path d="M58.95,242.79c8.12-1.45,10.43,11.28,2.48,12.66-8.36,1.45-10.49-11.22-2.48-12.66Z"/>
        <path d="M86.4,242.79c8.27-1.5,10.06,11.79,1.53,12.65-8.56.86-9.09-11.28-1.53-12.65Z"/>
        <path d="M224.58,242.79c8.37-1.51,9.96,11.38,2.48,12.66-8.68,1.48-10.45-11.22-2.48-12.66Z"/>
        <path d="M155.03,242.79c7.99-1.42,10.67,10.95,3.22,12.49-9.21,1.9-10.86-11.13-3.22-12.49Z"/>
        <path d="M168.76,242.79c8.12-1.45,10.43,11.28,2.48,12.66-8.36,1.45-10.49-11.22-2.48-12.66Z"/>
        <path d="M58.01,174.3c9.49-2.81,11.72,10.83,3.05,12.23-8.15,1.32-9.54-10.31-3.05-12.23Z"/>
        <path d="M71.74,174.31c9.08-2.04,11.68,10.83,3.05,12.22-7.74,1.25-10.37-10.58-3.05-12.22Z"/>
        <path d="M223.65,174.31c9.08-2.04,11.68,10.83,3.05,12.22-7.74,1.25-10.37-10.58-3.05-12.22Z"/>
        <path d="M127.56,188.01c9.88-2.21,10.82,11.71,2.31,12.43-7.27.61-9.46-10.83-2.31-12.43Z"/>
        <path d="M58,201.71c8.89-2.67,11.75,10.94,3.25,12.47-7.91,1.42-10.03-10.43-3.25-12.47Z"/>
        <path d="M71.73,201.71c8.64-2.62,11.73,10.94,3.25,12.47-7.57,1.36-10.56-10.25-3.25-12.47Z"/>
        <path d="M155.03,201.69c9.68-1.94,9.98,12.08,1.55,12.62-7.37.47-8.96-11.13-1.55-12.62Z"/>
        <path d="M167.82,201.71c8.89-2.67,11.75,10.94,3.25,12.47-7.91,1.42-10.03-10.43-3.25-12.47Z"/>
        <path d="M237.39,201.69c9.21-1.9,10.86,11.13,3.22,12.49-7.99,1.42-10.67-10.95-3.22-12.49Z"/>
        <path d="M58.94,215.4c8.75-1.82,10.53,12.04,1.55,12.62-7.37.48-9.46-10.98-1.55-12.62Z"/>
        <path d="M71.74,215.39c8.35-2.44,11.93,10.93,3.24,12.49-7.95,1.43-10.48-10.38-3.24-12.49Z"/>
        <path d="M210.85,215.4c8.75-1.82,10.53,12.04,1.55,12.62-7.37.48-9.46-10.98-1.55-12.62Z"/>
        <path d="M58.95,229.08c8.61-1.55,10.19,11.56,2.48,12.68-8.28,1.2-10.56-11.22-2.48-12.68Z"/>
        <path d="M72.67,229.08c8.37-1.53,10.43,11.82,1.52,12.66-7.57.71-9.68-11.17-1.52-12.66Z"/>
        <path d="M78.17,161.57c6.18,5.79-2.54,14.75-8.49,9.84-7.19-5.94,2.93-15.05,8.49-9.84Z"/>
        <path d="M243.78,184.83c-6.22,6.22-15.07-3.99-8.87-9.31,6.19-5.3,14.58,3.59,8.87,9.31Z"/>
        <path d="M141.3,229.1c9.01-1.86,10.08,11.06,3.23,12.47-9.01,1.86-10.08-11.06-3.23-12.47Z"/>
        <path d="M209.92,174.3c9.56-2.83,11.65,10.94,3.04,12.25-7.73,1.18-9.79-10.25-3.04-12.25Z"/>
        <path d="M141.3,215.4c9.01-1.86,10.08,11.06,3.23,12.47-9.01,1.86-10.08-11.06-3.23-12.47Z"/>
        <path d="M224.58,229.08c8.4-1.51,10.4,11.82,1.52,12.65-7.85.74-9.17-11.28-1.52-12.65Z"/>
        <path d="M237.37,229.1c8.24-2.41,11.57,10.76,3.24,12.47-8.1,1.66-10.37-10.39-3.24-12.47Z"/>
        <path d="M243.78,198.54c-6.22,6.22-15.07-3.99-8.87-9.31,6.19-5.3,14.58,3.59,8.87,9.31Z"/>
        <path d="M147.67,244.74c5.46,6.77-4.21,14.75-9.3,8.84-5.7-6.61,4.08-15.31,9.3-8.84Z"/>
        <path d="M197.13,201.69c9.67-1.94,9.99,12.06,1.55,12.62-6.92.46-9.19-11.09-1.55-12.62Z"/>
        <path d="M127.56,215.39c8.53-2.49,11.54,11.01,3.24,12.49-7.97,1.42-10.46-10.38-3.24-12.49Z"/>
        <path d="M197.13,242.79c7.88-1.5,10.75,10.94,3.22,12.49-9.41,1.94-10.51-11.1-3.22-12.49Z"/>
        <path d="M133.97,184.83c-5.72,5.71-14.63-2.67-9.32-8.85s15.55,2.64,9.32,8.85Z"/>
        <path d="M133.99,171.14c-4.01,3.72-11.59.9-10.73-5.62,1.52-11.55,18.75-1.82,10.73,5.62Z"/>
        <path d="M196.18,160.61c9.15-2.74,11.94,9.14,4.4,11.78s-12.04-9.49-4.4-11.78Z"/>
        <path d="M193.96,184.83c-5.39-5.34,2.45-14.81,8.86-9.31,6.18,5.3-2.59,15.52-8.86,9.31Z"/>
        <path d="M193.96,198.54c-5.39-5.34,2.45-14.81,8.86-9.31,6.18,5.3-2.59,15.52-8.86,9.31Z"/>
        <path d="M154.09,160.61c8.89-2.66,11.9,9.15,4.4,11.78s-12.04-9.49-4.4-11.78Z"/>
        <path d="M147.71,212.26c-5.29,5.58-14.63-1.85-9.89-8.52,4.9-6.9,15.85,2.23,9.89,8.52Z"/>
        <path d="M140.36,174.32c10.4-3.07,11.27,11.19,3.26,12.45-6.55,1.04-9.74-10.54-3.26-12.45Z"/>
        <path d="M99.21,242.79c7.94-1.45,10.71,10.94,3.22,12.49-9.51,1.97-9.85-11.28-3.22-12.49Z"/>
        <path d="M207.66,171.14c-5.67-5.26,2.5-14.81,8.89-9.32,6.11,5.24-2.7,15.07-8.89,9.32Z"/>
        <path d="M140.36,160.61c9.18-2.71,11.92,9.12,4.4,11.77-7.81,2.76-10.96-9.84-4.4-11.77Z"/>
        <path d="M141.3,187.99c9.68-1.97,9.95,11.29,2.32,12.49-6.5,1.02-10.3-10.87-2.32-12.49Z"/>
      </g>
      <rect class="cls-2" x="34.29" y="146.07" width="230.81" height="123.52" rx="11.52" ry="11.52"/>
    </g>
  </g>
</svg>