<?xml version="1.0" encoding="UTF-8"?>
<svg id="Layer_2" data-name="Layer 2" xmlns="http://www.w3.org/2000/svg" viewBox="0 0 299.39 299.39">
  <defs>
    <style>
      .cls-1 {
        fill: #efa420;
      }
    </style>
  </defs>
  <g id="Layer_1-2" data-name="Layer 1">
    <rect class="cls-1" width="299.39" height="299.39" rx="10.98" ry="10.98"/>
    <g>
      <path d="M158.37,127.72c1.27.59,2.44,1.2,3.31,2.34.27.35,1.17,1.94,1.17,2.25v9.29h-27.54v-8.43c0-.86,1.18-3.1,1.81-3.74.8-.82,1.94-1.14,2.89-1.7h18.36Z"/>
      <path d="M217.3,235.12v21.67c0,.08.37,1.1.46,1.25,1.06,1.85,5.01,1.64,5.69,4.13-.28,3.24.56,7.71,0,10.79-.19,1.02-1.36,2.15-2.42,2.27l-20.64-.03c-.37-.09-.67-.32-.99-.5-3.69-2.14-7.69-6.63-11.35-8.51-.58-.3-1.16-.48-1.81-.54h-72.61c-.73,0-1.43.15-2.09.46-3.5,1.65-7.88,6.51-11.48,8.59-.27.16-.52.35-.83.45-7.14.12-14.4.25-21.51-.07-.88-.47-1.65-1.25-1.77-2.28-.39-3.25.26-7.3.05-10.64.65-2.3,3.84-2.23,5.19-3.57.25-.25.96-1.58.96-1.81v-21.67h135.16ZM185.86,242.65c-.46.07-.95.32-1.34.59-.99.69-3.7,4.12-4.36,4.37-.2.08-1.91-.15-2.48-.1-5.25.46-7.13,7.65-2.73,10.86,3.9,2.84,9.59.08,9.69-4.78,0-.48-.24-.89-.23-1.28.02-.93,3.53-3.66,4.28-4.69,1.69-2.3.09-5.43-2.83-4.97ZM204.86,242.64c-.43.09-.88.43-1.23.69-1,.77-3.26,3.7-4.06,4.06-.71.32-2.41.02-3.42.21-4.64.88-6.07,7.47-2.54,10.46,3.53,2.99,9.45,1.02,10-3.64.08-.65-.17-2.44-.09-2.64.33-.8,3.63-3.31,4.39-4.38,1.65-2.36-.34-5.31-3.05-4.76Z"/>
      <path d="M78.89,204.43l141.49-.03c1.48.22,2.77.88,3.11,2.45v20.05c-.26,1.01-.99,1.72-1.9,2.16l-143.38.09c-1.1-.34-2.01-1.09-2.24-2.24.43-6.29-.62-13.46-.02-19.64.17-1.77,1.29-2.52,2.95-2.82ZM88.07,210.84c-7.39.97-6.48,12.44,1.22,12.12,8.01-.34,7.32-13.23-1.22-12.12ZM107.28,210.84c-7.75,1.01-6.38,12.63,1.22,12.11,7.99-.54,7.11-13.2-1.22-12.11ZM126.29,210.84c-8.92,1.27-4.92,15.62,3.69,11.38,5.97-2.95,3.12-12.35-3.69-11.38Z"/>
      <path d="M159.01,147.58v20.18c0,.25-.45,1.22-.64,1.5-1.33,1.94-4.32,3.8-5.87,5.66-.55,2.94,1.33,9.3-3.42,9.19-4.62-.11-2.59-6.28-3.2-9.19-1-1.35-6.51-5.82-6.51-7.16v-9.5h-32.03v40.78h-20.39s-.32-.3-.32-.32v-27.97c0-3.11,7.18-6.71,7.48-9.81.32-3.26-.49-7.5.04-10.64.07-.45.49-1.44.8-1.76.16-.17,1.51-.96,1.61-.96h62.46Z"/>
      <path d="M212.6,199.04h-20.5v-40.78h-27.33v-10.68h38.11c.33,0,1.69,1.15,1.91,1.5,1.18,1.91.28,9.14.53,11.85.04.44.07.81.27,1.22.69,1.41,4.76,4.56,6.04,6.13.17.2.96,1.29.96,1.39v29.36Z"/>
      <rect x="113.31" y="192.63" width="6.41" height="6.41"/>
      <rect x="146.62" y="192.63" width="6.19" height="6.41"/>
      <rect x="179.93" y="192.63" width="6.19" height="6.41"/>
    </g>
    <g>
      <path d="M126.14,33.51c-2.19,0-3.76.69-4.72,2.08-.96,1.39-1.44,3.67-1.44,6.85,0,2.75.46,4.7,1.38,5.82s2.52,1.69,4.78,1.69h8.67v4.37h-8.93c-1.97,0-3.52-.17-4.64-.5-1.13-.33-2.19-.9-3.18-1.7-1.29-1.02-2.25-2.36-2.89-4-.64-1.64-.96-3.61-.96-5.9,0-4.44.96-7.71,2.88-9.83s4.91-3.17,8.95-3.17h8.78v4.29h-8.67Z"/>
      <path d="M138.69,29.22h6.68l10.28,18.03-.26-18.03h5.39v25.1h-6.13l-10.79-18.99.24,18.99h-5.41v-25.1Z"/>
      <path d="M176.24,33.51c-2.19,0-3.76.69-4.72,2.08-.96,1.39-1.44,3.67-1.44,6.85,0,2.75.46,4.7,1.38,5.82s2.52,1.69,4.78,1.69h8.67v4.37h-8.93c-1.97,0-3.52-.17-4.64-.5-1.13-.33-2.19-.9-3.18-1.7-1.29-1.02-2.25-2.36-2.89-4-.64-1.64-.96-3.61-.96-5.9,0-4.44.96-7.71,2.88-9.83s4.91-3.17,8.95-3.17h8.78v4.29h-8.67Z"/>
      <path d="M100.38,75.47c-2.19,0-3.76.69-4.72,2.08-.96,1.39-1.44,3.67-1.44,6.85,0,2.75.46,4.7,1.38,5.82s2.52,1.69,4.78,1.69h8.67v4.37h-8.93c-1.97,0-3.52-.17-4.64-.5-1.13-.33-2.19-.9-3.18-1.7-1.29-1.02-2.25-2.36-2.89-4-.64-1.64-.96-3.61-.96-5.9,0-4.44.96-7.71,2.88-9.83s4.91-3.17,8.95-3.17h8.78v4.29h-8.67Z"/>
      <path d="M129.11,96.28h-9.17c-2.7,0-4.65-.54-5.85-1.6-1.2-1.07-1.8-2.78-1.8-5.14v-11.68h4.85v11.29c0,1.23.21,2.05.64,2.46.43.41,1.28.62,2.55.62h3.91v-14.36h4.87v18.42Z"/>
      <path d="M131.66,77.86h3.43v-6.68h4.87v6.68h5.14v3.67h-5.14v7.44c0,1.37.23,2.31.7,2.84.47.53,1.28.79,2.44.79h2v3.67h-4.44c-1.8,0-3.18-.5-4.13-1.49s-1.43-2.42-1.43-4.28v-8.98h-3.43v-3.67Z"/>
      <path d="M146.14,77.86h3.43v-6.68h4.87v6.68h5.14v3.67h-5.14v7.44c0,1.37.23,2.31.7,2.84.47.53,1.28.79,2.44.79h2v3.67h-4.44c-1.8,0-3.18-.5-4.13-1.49s-1.43-2.42-1.43-4.28v-8.98h-3.43v-3.67Z"/>
      <path d="M167.55,75.76h-5.11v-4.58h5.11v4.58ZM167.55,96.28h-5.11v-18.42h5.11v18.42Z"/>
      <path d="M171.75,77.86h9.15c2.77,0,4.74.52,5.92,1.56,1.18,1.04,1.78,2.77,1.78,5.18v11.68h-4.87v-11.08c0-1.38-.21-2.27-.64-2.68-.43-.41-1.28-.61-2.57-.61h-3.91v14.38h-4.87v-18.42Z"/>
      <path d="M210.01,95.62c0,2.53-.56,4.38-1.69,5.57-1.13,1.18-2.89,1.78-5.28,1.78h-9.54v-3.74h8.71c.93,0,1.65-.22,2.15-.67.5-.45.75-1.1.75-1.96v-.31h-3.96c-2.05,0-3.52-.15-4.42-.46-.9-.31-1.73-.83-2.49-1.57-.88-.83-1.55-1.87-2.02-3.11-.47-1.24-.71-2.58-.71-4.03s.24-2.75.71-3.99,1.15-2.27,2.02-3.1c.79-.77,1.71-1.33,2.77-1.67s2.44-.5,4.15-.5h8.86v17.76ZM202.58,92.48h2.53v-10.67h-2.53c-1.22,0-2.07.05-2.56.14s-.92.24-1.28.46c-.75.46-1.3,1.06-1.65,1.8-.35.75-.52,1.72-.52,2.91,0,1.97.44,3.36,1.32,4.16.88.8,2.44,1.2,4.7,1.2Z"/>
    </g>
  </g>
</svg>