<?xml version="1.0" encoding="UTF-8"?>
<svg id="Layer_2" data-name="Layer 2" xmlns="http://www.w3.org/2000/svg" viewBox="0 0 299.39 299.39">
  <defs>
    <style>
      .cls-1 {
        fill: #efa420;
      }
    </style>
  </defs>
  <g id="Layer_1-2" data-name="Layer 1">
    <rect class="cls-1" width="299.39" height="299.39" rx="10.98" ry="10.98"/>
    <g>
      <path d="M44.1,188.02h44.48c3.51-1.76-1.18-8.33,4.19-7.61h114.26c4.05.17,1.36,5.14,2.98,7.63l45.28-.03v16.44c-.62,1.16-3.14,4.22-4.43,4.22h-18.34v46.16c0,.56,4.83,8.22,5.55,9.62.52,1.01,1.94,3.39,2.03,4.33.22,2.08-1.29,2.36-1.6,3.42-.48,1.68.67,4.1-1.35,5.18h-5.9c-1.35-1.27-.41-4.03-1.04-5.07-.33-.54-1.36-.54-1.78-.96-2.13-2.16-5.59-9.54-7.47-10.86-1.27-.9-3.54.22-4.22-2.09-.46-1.57-.4-3.73-.78-5.56-.2-.94-.95-1.64-1.12-2.67-.11-.69.04-4.82.39-4.82h6.32v-2.11h-11.8v8.22c0,.6-.9,2.29-.84,3.16h-118.24c-.1,0-1.05-1.32-1.05-1.48v-9.91h-11.8v2.11c4.3.13,7.59-1.66,6.71,4.39-.23,1.6-1.32,2.41-1.56,3.49-.31,1.4.08,2.96-.19,4.45-.56,3.19-2.81,1.61-4.57,3.01-1.85,1.47-4.68,7.47-6.72,9.72-.98,1.07-2.35,1.44-2.45,1.55-.37.4.41,4.42-.91,5.42h-6.32c-1.4-1.51-.44-3.74-.91-5.22-.29-.93-2.24-.68-1.52-4.17.53-2.6,7.49-11.9,7.49-13.59v-45.74h-18.34c-1.21,0-3.81-2.66-4.43-3.79v-16.86ZM95.79,183.94c-4.8.33-3.86,11.01-4.04,14.42-.71,13.37-1.05,28.84.41,42.13.4,3.62.56,9.33,5.25,9.51h104.16c.93-.03,1.89-.21,2.69-.68,3.7-2.21,3.2-15.63,3.39-19.8.51-11.65,1.57-29.13-.45-40.41-.24-1.32-.79-4.1-2.07-4.67-35.61-.24-71.26-.44-106.87-.2-.86,0-1.76-.35-2.45-.31ZM89.2,192.24h-6.53c-.19,0-1.85,1.74-1.91,2.33-.1.96,1.06,2.73,1.91,2.73h6.53v-5.06ZM210.19,197.29h6.53c2.74,0,1.63-5.06,0-5.06h-6.32c-.87,0,.13,4.06-.21,5.06ZM89.2,208.68h-11.38v17.7h11.38v-17.7ZM221.57,208.68h-11.38c-.46,2.84.46,5.98.46,8.64,0,2.8-.92,6.08-.46,9.06h11.38v-17.7Z"/>
      <path d="M82.46,125.63c.15.54-.21,4.22,0,4.22h159.98c.98,0,2.59,1.55,2.96,2.52,1.71,4.48,1.68,15.17,3.66,18.69.78,1.38,4.87,3.78,6.24,4.93v.84H44.1v-.84l6.23-4.94c1.77-5.42,1.73-13.57,3.67-18.67,1.22-3.22,4.98-2.23,5.28-2.52.15-.15-.11-3.5,0-4.22h23.18ZM204.28,148.39c-.08-3.26.41-8.02-3.98-8.03h-102.04c-3.69.21-3.04,5.31-3.15,8.03h109.18Z"/>
      <polygon points="255.29 158.51 255.29 185.91 220.28 185.71 219.99 159.13 221.34 158.49 255.29 158.51"/>
      <rect x="44.1" y="158.51" width="34.99" height="27.4"/>
      <rect x="81.19" y="158.51" width="137" height="8.85"/>
      <path d="M218.2,182.12c-1.27.2-.68-.3-.85-1.02-.5-2.07-.84-4.43-.83-6.57h-2.96s0,2.95,0,2.95h-127.73v-2.95c-.57.09-2.83-.13-2.95,0-.24.25-.65,5.83-.86,6.95-.13.69.28.72-.83.64v-12.01h137v12.01Z"/>
    </g>
    <g>
      <path d="M113.33,54.32c-2.35,0-4.09-.2-5.22-.59-1.14-.39-2.16-1.07-3.06-2.04-.83-.87-1.42-1.84-1.76-2.94s-.51-2.63-.51-4.61v-14.92h5.28v14.75c0,1.47.07,2.5.2,3.1s.36,1.08.67,1.44c.5.59,1.12,1.01,1.84,1.26.73.25,1.74.38,3.02.38h6.21v4.17h-6.68Z"/>
      <path d="M122.7,35.9h9.97c2.51,0,4.41.58,5.69,1.73,1.27,1.16,1.91,2.87,1.91,5.15v11.54h-13.08c-1.83,0-3.24-.46-4.23-1.38s-1.48-2.23-1.48-3.93c0-2.09.57-3.6,1.7-4.51,1.13-.91,3.01-1.37,5.64-1.37h6.4v-.46c0-1.09-.32-1.86-.96-2.3-.64-.44-1.79-.67-3.44-.67h-8.13v-3.81ZM129.17,50.62h6.1v-3.81h-5.74c-1.14,0-1.92.15-2.36.46-.43.31-.65.84-.65,1.61,0,.65.17,1.1.52,1.36.35.26,1.06.38,2.12.38Z"/>
      <path d="M144.52,35.9h8.18c1.91,0,3.25.34,4.02,1.03.77.69,1.15,1.89,1.15,3.61v3.07h-4.64v-2.37c0-.72-.13-1.2-.38-1.44-.26-.24-.84-.37-1.75-.37h-1.71v14.89h-4.87v-18.42Z"/>
      <path d="M178.24,53.66c0,2.53-.56,4.38-1.69,5.57-1.13,1.18-2.89,1.78-5.28,1.78h-9.54v-3.74h8.71c.93,0,1.65-.22,2.15-.67.5-.45.75-1.1.75-1.96v-.31h-3.96c-2.05,0-3.52-.15-4.42-.46-.9-.31-1.73-.83-2.49-1.57-.88-.83-1.55-1.87-2.02-3.11-.47-1.24-.71-2.58-.71-4.03s.24-2.75.71-3.99,1.15-2.27,2.02-3.1c.79-.77,1.71-1.33,2.77-1.67s2.44-.5,4.15-.5h8.86v17.76ZM170.82,50.51h2.53v-10.67h-2.53c-1.22,0-2.07.05-2.56.14s-.92.24-1.28.46c-.75.46-1.3,1.06-1.65,1.8-.35.75-.52,1.72-.52,2.91,0,1.97.44,3.36,1.32,4.16.88.8,2.44,1.2,4.7,1.2Z"/>
      <path d="M190.5,54.32c-3.05,0-5.36-.78-6.92-2.33-1.57-1.55-2.35-3.84-2.35-6.87s.79-5.32,2.36-6.88c1.57-1.56,3.88-2.34,6.92-2.34h7.1v3.84h-6.44c-1.76,0-2.95.25-3.56.75-.61.5-.94,1.41-.98,2.71h10.98v3.84h-10.98c.05,1.32.35,2.22.91,2.71.56.48,1.76.73,3.59.73h6.47v3.84h-7.1Z"/>
      <path d="M82.9,71.18h11.46c1.93,0,3.48.1,4.63.3s2.07.51,2.75.95c1.14.73,2,1.68,2.59,2.86.59,1.18.88,2.54.88,4.07s-.24,2.79-.72,3.87c-.48,1.08-1.21,1.97-2.19,2.67-.82.58-1.76.99-2.83,1.24-1.06.25-2.69.37-4.89.37h-6.4v8.78h-5.28v-25.1ZM94.29,75.66h-6.11v7.41h6.44c1.59,0,2.78-.3,3.55-.91.77-.61,1.16-1.54,1.16-2.79,0-1.34-.38-2.3-1.14-2.86s-2.06-.84-3.9-.84Z"/>
      <path d="M108.36,77.86h8.18c1.91,0,3.25.34,4.02,1.03.77.69,1.15,1.89,1.15,3.61v3.07h-4.64v-2.37c0-.72-.13-1.2-.38-1.44-.26-.24-.84-.37-1.75-.37h-1.71v14.89h-4.87v-18.42Z"/>
      <path d="M129.91,75.76h-5.11v-4.58h5.11v4.58ZM129.91,96.28h-5.11v-18.42h5.11v18.42Z"/>
      <path d="M134.11,77.86h9.15c2.77,0,4.74.52,5.92,1.56,1.18,1.04,1.78,2.77,1.78,5.18v11.68h-4.87v-11.08c0-1.38-.21-2.27-.64-2.68-.43-.41-1.28-.61-2.57-.61h-3.91v14.38h-4.87v-18.42Z"/>
      <path d="M153.26,77.86h3.43v-6.68h4.87v6.68h5.14v3.67h-5.14v7.44c0,1.37.23,2.31.7,2.84.47.53,1.28.79,2.44.79h2v3.67h-4.44c-1.8,0-3.18-.5-4.13-1.49s-1.43-2.42-1.43-4.28v-8.98h-3.43v-3.67Z"/>
      <path d="M174.67,75.76h-5.11v-4.58h5.11v4.58ZM174.67,96.28h-5.11v-18.42h5.11v18.42Z"/>
      <path d="M178.87,77.86h9.15c2.77,0,4.74.52,5.92,1.56,1.18,1.04,1.78,2.77,1.78,5.18v11.68h-4.87v-11.08c0-1.38-.21-2.27-.64-2.68-.43-.41-1.28-.61-2.57-.61h-3.91v14.38h-4.87v-18.42Z"/>
      <path d="M217.14,95.62c0,2.53-.56,4.38-1.69,5.57-1.13,1.18-2.89,1.78-5.28,1.78h-9.54v-3.74h8.71c.93,0,1.65-.22,2.15-.67.5-.45.75-1.1.75-1.96v-.31h-3.96c-2.05,0-3.52-.15-4.42-.46-.9-.31-1.73-.83-2.49-1.57-.88-.83-1.55-1.87-2.02-3.11-.47-1.24-.71-2.58-.71-4.03s.24-2.75.71-3.99,1.15-2.27,2.02-3.1c.79-.77,1.71-1.33,2.77-1.67s2.44-.5,4.15-.5h8.86v17.76ZM209.71,92.48h2.53v-10.67h-2.53c-1.22,0-2.07.05-2.56.14s-.92.24-1.28.46c-.75.46-1.3,1.06-1.65,1.8-.35.75-.52,1.72-.52,2.91,0,1.97.44,3.36,1.32,4.16.88.8,2.44,1.2,4.7,1.2Z"/>
    </g>
  </g>
</svg>