<?xml version="1.0" encoding="UTF-8"?>
<svg id="Layer_2" data-name="Layer 2" xmlns="http://www.w3.org/2000/svg" viewBox="0 0 299.39 299.39">
  <defs>
    <style>
      .cls-1 {
        fill: #efa420;
      }
    </style>
  </defs>
  <g id="Layer_1-2" data-name="Layer 1">
    <rect class="cls-1" width="299.39" height="299.39" rx="10.98" ry="10.98"/>
    <g>
      <path d="M168.99,156.21v53.2c-2.29,4.7-7.5,9.89-9.53,14.47-1.13,2.56-1.62,8.53-2.95,10.31-1.19,1.6-4.25.73-4.25.96v21.47h-5.05v-21.47c0-.23-3.06.64-4.25-.96-1.39-1.86-1.78-7.87-2.88-10.38-1.96-4.49-7.31-9.8-9.6-14.4v-53.2h-5.53c-.11,0-1.52-1.19-1.75-1.41-3.8-3.64-7.27-7.94-11.2-11.54-.48-.44-1.13-.78-1.64-1.2l-31.52-.06c-1.2.08-3.06-.81-3.3-2.07-.27-1.44-.23-9.17.01-10.71.21-1.34,1.32-2.14,2.65-2.09l143.92.08c1.16.35,1.68,1.13,1.81,2.29.17,1.43.16,10.29-.24,11.14-.44.96-2.07,1.29-3.07,1.35l-31.52.05c-2.01,1.35-13.57,14.14-14.59,14.14h-5.53ZM90.69,136.64c-.53-.57-3.96-4.42-4.26-4.42h-5.84v4.42h10.1ZM105.21,136.64c-.82-.46-4.17-4.42-4.58-4.42h-6.79c.53.57,3.96,4.42,4.26,4.42h7.1ZM119.42,136.64c-.53-.57-3.96-4.42-4.26-4.42h-7.1c.53.57,3.96,4.42,4.26,4.42h7.1ZM133.63,136.64c-.53-.57-3.96-4.42-4.26-4.42h-6.79c.53.57,3.96,4.42,4.26,4.42h6.79ZM148.15,136.64c-.53-.57-3.96-4.42-4.26-4.42h-7.1c.53.57,3.96,4.42,4.26,4.42h7.1ZM162.36,136.64c-.53-.57-3.96-4.42-4.26-4.42h-6.79c.53.57,3.96,4.42,4.26,4.42h6.79ZM176.88,136.64c-.53-.57-3.96-4.42-4.26-4.42h-7.1c.53.57,3.96,4.42,4.26,4.42h7.1ZM191.09,136.64c-.53-.57-3.96-4.42-4.26-4.42h-6.79c.53.57,3.96,4.42,4.26,4.42h6.79ZM205.61,136.64c-.53-.57-3.96-4.42-4.26-4.42h-7.1c.53.57,3.96,4.42,4.26,4.42h7.1ZM218.88,132.22h-10.42c.53.57,3.96,4.42,4.26,4.42h6.16v-4.42ZM181.62,142h-63.78l8.67,8.86c15.37.5,31.12.5,46.45,0l8.67-8.86ZM163.94,156.21h-28.42v4.42h28.42v-4.42ZM142.47,165.68h-6.95v40.41h28.42v-40.41h-6.95v27.94c0,.21-.9,2.02-1.13,2.35-2.96,4.33-9.31,4.33-12.27,0-.23-.33-1.13-2.14-1.13-2.35v-27.94ZM151.94,165.68h-4.42v14.21h4.42v-14.21ZM151.94,184.94h-4.42v7.74c0,.09,1.11,1.18,1.27,1.26,1.03.47,3.15-.16,3.15-1.26v-7.74ZM147.2,211.15h-9.47l5.84,8.84c.24.33.58.29.93.34,1.17.14,10.75.11,11.23-.18l6-9h-9.47v4.74h-5.05v-4.74ZM153.52,225.67h-7.58l.98,4.39,5.46.05,1.14-4.44Z"/>
      <path d="M154.06,261.1l63.36-.03c9.04,1.5,8.79,13.87-.6,14.8h-62.49c-.89-.14-1.99-1.05-2.24-1.87-.34-1.11-.34-9.21-.12-10.58.17-1.09,1.08-1.98,2.1-2.32ZM156.99,270.51h60.78c1.27,0,1.81-4.42-.95-4.42h-59.83v4.42Z"/>
      <path d="M146.8,261.76c.35.35.67,1.43.73,1.96.22,1.95.27,7.93-.03,9.78-.18,1.13-1.24,2.19-2.37,2.37h-62.49c-9.31-.9-9.63-13.25-.6-14.79l62.5-.05c.64,0,1.84.31,2.26.74ZM142.47,266.09h-59.83c-2.05,0-3.01,3.76-.62,4.41,19.67.4,39.39-.5,59.05-.01.54.01.93.1,1.4.33v-4.74Z"/>
      <path d="M164.48,245.28c.96-.25,3.02,2.68,3.88,3.28l-9.9,9.61c-.55-.59-3.43-3.02-3.34-3.56,1.64-1.19,8.16-9.01,9.35-9.32Z"/>
      <path d="M134.48,245.28c.36-.1.64,0,.9.26l8.96,9.06c.1.54-2.79,2.98-3.34,3.56l-9.9-9.61c.79-.53,2.69-3.1,3.37-3.28Z"/>
      <rect x="118.47" y="251.56" width="9.79" height="5.05"/>
      <rect x="171.2" y="251.56" width="9.79" height="5.05"/>
    </g>
    <g>
      <path d="M113.6,54.32c-2.35,0-4.09-.2-5.22-.59-1.14-.39-2.16-1.07-3.06-2.04-.83-.87-1.42-1.84-1.76-2.94s-.51-2.63-.51-4.61v-14.92h5.28v14.75c0,1.47.07,2.5.2,3.1s.36,1.08.67,1.44c.5.59,1.12,1.01,1.84,1.26.73.25,1.74.38,3.02.38h6.21v4.17h-6.68Z"/>
      <path d="M122.97,35.9h9.97c2.51,0,4.41.58,5.69,1.73,1.27,1.16,1.91,2.87,1.91,5.15v11.54h-13.08c-1.83,0-3.24-.46-4.23-1.38s-1.48-2.23-1.48-3.93c0-2.09.57-3.6,1.7-4.51,1.13-.91,3.01-1.37,5.64-1.37h6.4v-.46c0-1.09-.32-1.86-.96-2.3-.64-.44-1.79-.67-3.44-.67h-8.13v-3.81ZM129.44,50.62h6.1v-3.81h-5.74c-1.14,0-1.92.15-2.36.46-.43.31-.65.84-.65,1.61,0,.65.17,1.1.52,1.36.35.26,1.06.38,2.12.38Z"/>
      <path d="M144.5,50.48h10.26c.91,0,1.57-.14,1.99-.43.42-.28.62-.74.62-1.37s-.21-1.08-.63-1.37-1.08-.44-1.98-.44h-4.2c-2.49,0-4.18-.38-5.05-1.14-.88-.76-1.31-2.12-1.31-4.06s.53-3.44,1.59-4.37,2.7-1.4,4.92-1.4h10.45v3.84h-8.59c-1.4,0-2.31.12-2.73.37s-.63.68-.63,1.31c0,.57.19.99.56,1.25.37.27.95.4,1.75.4h4.4c2.01,0,3.55.47,4.61,1.41,1.06.94,1.59,2.3,1.59,4.07s-.47,3.1-1.41,4.17c-.94,1.07-2.15,1.6-3.63,1.6h-12.57v-3.84Z"/>
      <path d="M173.79,54.32c-3.05,0-5.36-.78-6.92-2.33-1.57-1.55-2.35-3.84-2.35-6.87s.79-5.32,2.36-6.88c1.57-1.56,3.88-2.34,6.92-2.34h7.1v3.84h-6.44c-1.76,0-2.95.25-3.56.75-.61.5-.94,1.41-.98,2.71h10.98v3.84h-10.98c.05,1.32.35,2.22.91,2.71.56.48,1.76.73,3.59.73h6.47v3.84h-7.1Z"/>
      <path d="M184,35.9h8.18c1.91,0,3.25.34,4.02,1.03.77.69,1.15,1.89,1.15,3.61v3.07h-4.64v-2.37c0-.72-.13-1.2-.38-1.44-.26-.24-.84-.37-1.75-.37h-1.71v14.89h-4.87v-18.42Z"/>
      <path d="M100.38,75.47c-2.19,0-3.76.69-4.72,2.08-.96,1.39-1.44,3.67-1.44,6.85,0,2.75.46,4.7,1.38,5.82s2.52,1.69,4.78,1.69h8.67v4.37h-8.93c-1.97,0-3.52-.17-4.64-.5-1.13-.33-2.19-.9-3.18-1.7-1.29-1.02-2.25-2.36-2.89-4-.64-1.64-.96-3.61-.96-5.9,0-4.44.96-7.71,2.88-9.83s4.91-3.17,8.95-3.17h8.78v4.29h-8.67Z"/>
      <path d="M129.11,96.28h-9.17c-2.7,0-4.65-.54-5.85-1.6-1.2-1.07-1.8-2.78-1.8-5.14v-11.68h4.85v11.29c0,1.23.21,2.05.64,2.46.43.41,1.28.62,2.55.62h3.91v-14.36h4.87v18.42Z"/>
      <path d="M131.66,77.86h3.43v-6.68h4.87v6.68h5.14v3.67h-5.14v7.44c0,1.37.23,2.31.7,2.84.47.53,1.28.79,2.44.79h2v3.67h-4.44c-1.8,0-3.18-.5-4.13-1.49s-1.43-2.42-1.43-4.28v-8.98h-3.43v-3.67Z"/>
      <path d="M146.14,77.86h3.43v-6.68h4.87v6.68h5.14v3.67h-5.14v7.44c0,1.37.23,2.31.7,2.84.47.53,1.28.79,2.44.79h2v3.67h-4.44c-1.8,0-3.18-.5-4.13-1.49s-1.43-2.42-1.43-4.28v-8.98h-3.43v-3.67Z"/>
      <path d="M167.55,75.76h-5.11v-4.58h5.11v4.58ZM167.55,96.28h-5.11v-18.42h5.11v18.42Z"/>
      <path d="M171.75,77.86h9.15c2.77,0,4.74.52,5.92,1.56,1.18,1.04,1.78,2.77,1.78,5.18v11.68h-4.87v-11.08c0-1.38-.21-2.27-.64-2.68-.43-.41-1.28-.61-2.57-.61h-3.91v14.38h-4.87v-18.42Z"/>
      <path d="M210.01,95.62c0,2.53-.56,4.38-1.69,5.57-1.13,1.18-2.89,1.78-5.28,1.78h-9.54v-3.74h8.71c.93,0,1.65-.22,2.15-.67.5-.45.75-1.1.75-1.96v-.31h-3.96c-2.05,0-3.52-.15-4.42-.46-.9-.31-1.73-.83-2.49-1.57-.88-.83-1.55-1.87-2.02-3.11-.47-1.24-.71-2.58-.71-4.03s.24-2.75.71-3.99,1.15-2.27,2.02-3.1c.79-.77,1.71-1.33,2.77-1.67s2.44-.5,4.15-.5h8.86v17.76ZM202.58,92.48h2.53v-10.67h-2.53c-1.22,0-2.07.05-2.56.14s-.92.24-1.28.46c-.75.46-1.3,1.06-1.65,1.8-.35.75-.52,1.72-.52,2.91,0,1.97.44,3.36,1.32,4.16.88.8,2.44,1.2,4.7,1.2Z"/>
    </g>
  </g>
</svg>