<?xml version="1.0" encoding="UTF-8"?>
<svg id="Layer_2" data-name="Layer 2" xmlns="http://www.w3.org/2000/svg" viewBox="0 0 299.39 299.39">
  <defs>
    <style>
      .cls-1 {
        fill: #efa420;
      }
    </style>
  </defs>
  <g id="Layer_1-2" data-name="Layer 1">
    <rect class="cls-1" width="299.39" height="299.39" rx="10.98" ry="10.98"/>
    <g>
      <path d="M77.87,217.87c-.86-.19-1.66-1.53-1.58-2.4v-79.89c.12-1.28.63-2.06,1.91-2.41h12.77c.79-2.68,2.61-4.57,5.5-4.81,4.25-.36,9.08.22,13.38.08,1.67.35,3.15,1.32,4.01,2.8.26.45.59,1.61.72,1.78s.31.17.49.17h22.59c.47-.1.56-1.11.84-1.66.8-1.57,2.47-2.82,4.22-3.09,4.09-.63,9.33.31,13.54-.07,2.59.35,4.65,2.17,5.21,4.72,7.73.23,15.57.02,23.34.11.43-2.16,1.93-3.97,4.08-4.58s11.24-.44,13.87-.26c3,.21,4.81,2.06,5.66,4.83h12.75c1.07.2,1.71.85,1.88,1.95l.05,80.34c.09.77-.78,2.4-1.58,2.4h-58.7v34.29l9.14,9.79c3.79-.07,7.81.12,9.02,4.43.37,1.33.47,5.13.24,6.49-.18,1.04-1.12,1.92-2.19,1.96h-58.63c-1.25,0-2.11-1.07-2.24-2.25-.42-3.88-.14-9.04,4.32-10.29,1.63-.46,3.16-.05,4.74-.41l9.37-10.22v-33.79h-58.7ZM110.34,138.33v-4.23c0-.23-.51-.94-.74-1.08-.83-.52-1.25-.15-1.99-.15-3.71,0-7.42-.02-11.12,0-.46-.02-1.09.68-1.09,1.07v4.4h14.95ZM203.99,138.33v-4.57c0-.37-.9-.99-1.3-.99-3.93.44-8.37-.3-12.24,0-.56.04-1.41.81-1.41,1.33v4.23h14.95ZM157.17,138.33v-4.4c0-.31-.76-1.23-1.24-1.08-3.96.28-8.4-.36-12.3,0-.34.03-.62.02-.9.26-.09.08-.5.78-.5.83v4.4h14.95ZM90.91,137.5h-10.13v76.05h137.83v-76.05h-10.13v3.07c0,.18-.41,1.23-.57,1.42-.36.42-.96.61-1.5.66-6.23.6-13.44-.47-19.77,0-.68.11-1.91-1-1.91-1.58v-3.57l-23.25.25v3.49c0,.4-1.19,1.52-1.74,1.42-6.4-.47-13.64.6-19.94,0-.42-.04-.78-.11-1.13-.36-.16-.12-.77-.96-.77-1.06v-3.74h-23.25v3.57c0,.47-1.13,1.66-1.74,1.58l-20.52-.08c-.67-.11-1.49-1.24-1.49-1.83v-3.24ZM158.33,217.87h-17.27v44.17h6.48v-10.21c0-.07.68-1,.79-1.08.69-.5,2.06-.46,2.76.03.22.16.77.87.77,1.05v10.21h6.48v-44.17ZM136.58,262.04v-3.82l-3.49,3.82h3.49ZM162.81,258.72v3.32h3.16l-3.16-3.32ZM176.76,270.51v-2.91c0-.2-.86-1.21-1.24-1.09h-51.5c-.44-.22-1.4.84-1.4,1.09v2.91h54.13Z"/>
      <path d="M87.81,209.01c-1.6-1.45-.41-4,1.68-3.93h120.41c2.55.11,3.38,3.21,1,4.33-40.72.29-81.55.2-122.28.05-.27-.12-.58-.24-.8-.44Z"/>
    </g>
    <g>
      <path d="M103.54,33.7h-13.04c-1.4,0-2.43.26-3.08.79-.65.52-.98,1.35-.98,2.49,0,.91.28,1.59.84,2.05s1.39.68,2.49.68h6.98c2.89,0,4.95.55,6.17,1.64,1.22,1.09,1.83,2.91,1.83,5.46s-.71,4.48-2.12,5.69-3.63,1.82-6.66,1.82h-14.05v-4.47h13.22c1.5,0,2.56-.22,3.18-.66.61-.44.92-1.16.92-2.18s-.28-1.79-.85-2.24c-.56-.44-1.53-.67-2.89-.67h-6.23c-2.89,0-5-.58-6.34-1.73s-2.01-2.98-2.01-5.47c0-2.66.7-4.61,2.11-5.84,1.41-1.23,3.64-1.84,6.7-1.84h13.81v4.47Z"/>
      <path d="M113.32,33.8h-5.11v-4.58h5.11v4.58ZM113.32,54.32h-5.11v-18.42h5.11v18.42Z"/>
      <path d="M134.8,53.66c0,2.53-.56,4.38-1.69,5.57-1.13,1.18-2.89,1.78-5.28,1.78h-9.54v-3.74h8.71c.93,0,1.65-.22,2.15-.67.5-.45.75-1.1.75-1.96v-.31h-3.96c-2.05,0-3.52-.15-4.42-.46-.9-.31-1.73-.83-2.49-1.57-.88-.83-1.55-1.87-2.02-3.11-.47-1.24-.71-2.58-.71-4.03s.24-2.75.71-3.99,1.15-2.27,2.02-3.1c.79-.77,1.71-1.33,2.77-1.67s2.44-.5,4.15-.5h8.86v17.76ZM127.37,50.51h2.53v-10.67h-2.53c-1.22,0-2.07.05-2.56.14s-.92.24-1.28.46c-.75.46-1.3,1.06-1.65,1.8-.35.75-.52,1.72-.52,2.91,0,1.97.44,3.36,1.32,4.16.88.8,2.44,1.2,4.7,1.2Z"/>
      <path d="M138.84,35.9h9.15c2.77,0,4.74.52,5.92,1.56,1.18,1.04,1.78,2.77,1.78,5.18v11.68h-4.87v-11.08c0-1.38-.21-2.27-.64-2.68-.43-.41-1.28-.61-2.57-.61h-3.91v14.38h-4.87v-18.42Z"/>
      <path d="M160.2,35.9h9.97c2.51,0,4.41.58,5.69,1.73,1.27,1.16,1.91,2.87,1.91,5.15v11.54h-13.08c-1.83,0-3.24-.46-4.23-1.38s-1.48-2.23-1.48-3.93c0-2.09.57-3.6,1.7-4.51,1.13-.91,3.01-1.37,5.64-1.37h6.4v-.46c0-1.09-.32-1.86-.96-2.3-.64-.44-1.79-.67-3.44-.67h-8.13v-3.81ZM166.67,50.62h6.1v-3.81h-5.74c-1.14,0-1.92.15-2.36.46-.43.31-.65.84-.65,1.61,0,.65.17,1.1.52,1.36.35.26,1.06.38,2.12.38Z"/>
      <path d="M199.3,53.66c0,2.53-.56,4.38-1.69,5.57-1.13,1.18-2.89,1.78-5.28,1.78h-9.54v-3.74h8.71c.93,0,1.65-.22,2.15-.67.5-.45.75-1.1.75-1.96v-.31h-3.96c-2.05,0-3.52-.15-4.42-.46-.9-.31-1.73-.83-2.49-1.57-.88-.83-1.55-1.87-2.02-3.11-.47-1.24-.71-2.58-.71-4.03s.24-2.75.71-3.99,1.15-2.27,2.02-3.1c.79-.77,1.71-1.33,2.77-1.67s2.44-.5,4.15-.5h8.86v17.76ZM191.88,50.51h2.53v-10.67h-2.53c-1.22,0-2.07.05-2.56.14s-.92.24-1.28.46c-.75.46-1.3,1.06-1.65,1.8-.35.75-.52,1.72-.52,2.91,0,1.97.44,3.36,1.32,4.16.88.8,2.44,1.2,4.7,1.2Z"/>
      <path d="M211.56,54.32c-3.05,0-5.36-.78-6.92-2.33-1.57-1.55-2.35-3.84-2.35-6.87s.79-5.32,2.36-6.88c1.57-1.56,3.88-2.34,6.92-2.34h7.1v3.84h-6.44c-1.76,0-2.95.25-3.56.75-.61.5-.94,1.41-.98,2.71h10.98v3.84h-10.98c.05,1.32.35,2.22.91,2.71.56.48,1.76.73,3.59.73h6.47v3.84h-7.1Z"/>
      <path d="M101.2,71.18h5.65l5.81,19.29,4.9-19.29h6.23l5.62,19.29,5.43-19.29h5.41l-7.75,25.1h-6.47l-5.36-18.75-4.68,18.75h-6.44l-8.35-25.1Z"/>
      <path d="M159.59,87.08c0,2.89-.88,5.2-2.64,6.92s-4.13,2.59-7.11,2.59-5.36-.87-7.14-2.6c-1.78-1.73-2.66-4.04-2.66-6.92s.89-5.2,2.66-6.94c1.78-1.74,4.15-2.6,7.14-2.6s5.32.87,7.09,2.6c1.77,1.74,2.65,4.05,2.65,6.94ZM145.14,87.08c0,1.75.41,3.12,1.23,4.1.82.98,1.96,1.47,3.43,1.47s2.6-.49,3.43-1.47c.83-.98,1.25-2.34,1.25-4.1s-.41-3.12-1.24-4.09-1.97-1.46-3.44-1.46-2.6.49-3.42,1.47c-.83.98-1.24,2.34-1.24,4.08Z"/>
      <path d="M162.56,77.86h8.18c1.91,0,3.25.34,4.02,1.03.77.69,1.15,1.89,1.15,3.61v3.07h-4.64v-2.37c0-.72-.13-1.2-.38-1.44-.26-.24-.84-.37-1.75-.37h-1.71v14.89h-4.87v-18.42Z"/>
      <path d="M179.14,71.18h4.87v15.52l7.82-8.84h6.16l-8.54,9.01,8.54,9.41h-6.54l-7.44-8.95v8.95h-4.87v-25.1Z"/>
    </g>
  </g>
</svg>