<?xml version="1.0" encoding="UTF-8"?>
<svg id="Layer_2" data-name="Layer 2" xmlns="http://www.w3.org/2000/svg" viewBox="0 0 299.39 299.39">
  <defs>
    <style>
      .cls-1 {
        fill: #efa420;
      }
    </style>
  </defs>
  <g id="Layer_1-2" data-name="Layer 1">
    <rect class="cls-1" width="299.39" height="299.39" rx="10.98" ry="10.98"/>
    <g>
      <path d="M95.43,248.91c-.18.85-1.9,2.76-2.99,2.57-8.07-.74-17.66.92-25.53-.01-2.16-.26-3.04-1.25-3.03-3.46v-68.66c-.45-1.21,3.16-5.48,2.8-5.78-5.19-.89-11.74-1.46-16.7-3.01-1.7-.53-3.65-1.42-4.08-3.36-.28-1.27,1.32-7.6,1.9-9.03.87-2.13,2.84-3.82,5.18-4.09l28.53-.22,15.74-21.35c.81-.82,2.1-.78,3.17-1,11.8-2.46,27.12-2.17,39.29-2.44,16.88-.38,34.13-.49,50.98,1.37,1.92.21,3.91.55,5.8.93.24.34-3.23,7.05-4.86,6.53l-24.56-1.92c-21.66-.09-43.34-.27-64.84,2.43-7.16,8.32-13.21,17.71-19.99,26.39-1.13,1.68-.19,3.63,1.45,4.49,6.47-.33,12.92-1.33,19.38-1.76,23.79-1.6,47.77-1.84,71.63-.93l-23.84,38.05c-.4.4-.9.38-1.41.45-6.69.91-15.58-.93-22.3-.04-1.54.2-1.89.57-2.09,2.09-.38,2.88-.33,11.47.01,14.4.07.62.6,2.54,1.17,2.54h11.82c-.93,3.11-3.31,6.22-5.33,8.81h-37.33c-.67,4.54.9,11.82,0,16ZM107.78,191.81c-.92-.9-2.26-1.12-3.45-1.41-6.54-1.6-18.29-3.65-24.96-4.25-3.05-.28-6.3-.08-7.02,3.53-.33,1.65-.37,8.87,0,10.46.62,2.79,3.63,4.14,6.21,4.45,4.99.6,20.93.68,25.71-.16,1.86-.32,4.05-1.3,4.51-3.37.44-1.94.46-7.82-.99-9.25Z"/>
      <path d="M233.48,134.72c7.15-1.45,17.17,3.42,22.99,7.4,5.03,3.44,15,12.02,12.99,18.85l-69.51,110.86c-4.5,5.23-15.3.46-20.44-2.2-5.75-2.98-20.98-13.65-19.53-21.06,22.35-36.79,45.84-72.94,68.52-109.55,1.05-1.67,2.98-3.88,4.99-4.29ZM198.83,263.52c2.21-2.54,3.94-5.55,5.75-8.38,20.2-31.67,39.78-63.74,59.89-95.47.55-1.45-.54-3.07-1.27-4.33-3.8-6.49-17.68-15.26-25.17-15.63-1.41-.07-3.44-.32-4.44.7l-64.86,103c-.2,1.29,3.14,1.36,4.24,1.71,8.49,2.72,18.35,8.93,24.25,15.63.69.78,1.42,1.74,1.62,2.79ZM164.98,249.15c-1.38,1.33,5.56,8.25,6.74,9.26,4.39,3.77,17.5,11.69,23.17,10.68.54-.1.83-.23,1.15-.69-2.87-5.98-9.02-10.76-14.68-14.05-4.8-2.79-10.75-5.44-16.37-5.19Z"/>
      <path d="M203,141.11l-61.03,97.6c1.51,5.01,5.49,9.36,9.31,12.76,4.76,4.25,10.27,8.14,15.33,12.49,1.85,1.59,5.59,3.67,6.95,5.11.52.55.06.55-.47.47-10.22-1.59-31.69-17.36-35.37-27.23-.83-2.24-1.35-4.54.16-6.59l64.87-102.97c.53-.61.45-.5.91.03,1.26,1.43,2.23,3.74,3.51,5.3,2.19,2.67,5.76,5.96,8.95,7.28,1.57.65,3.18.61,4.47,1.54-.77.75-2.31,4.38-3.26,4.23-5.34-.87-10.74-6.33-14.35-10.02Z"/>
      <path d="M219.69,251.46l15.99-25.04c.05.85-.33,1.63-.27,2.55.39,5.38.05,10.76.01,16.25,0,1.1.5,2.25.4,3.12s-1.59,3.12-2.46,3.12h-13.68Z"/>
      <path d="M250.76,147.14l-63.13,101.48c-1.05.61-12.06-6.59-14.77-5.97l62.36-100.15c2.42-2.18,12.76,3.41,15.54,4.65Z"/>
      <path d="M174.08,254.28c2.51-.72,13.06,5.63,13.62,8.99-.57,2.88-9.69-2.94-10.89-3.94-.79-.66-5-4.4-2.73-5.05Z"/>
    </g>
    <g>
      <path d="M102.47,54.32l-10.94-25.1h5.99l7.55,18.7,7.73-18.7h5.62l-10.48,25.1h-5.46Z"/>
      <path d="M125.91,54.32c-3.05,0-5.36-.78-6.92-2.33-1.57-1.55-2.35-3.84-2.35-6.87s.79-5.32,2.36-6.88c1.57-1.56,3.88-2.34,6.92-2.34h7.1v3.84h-6.44c-1.76,0-2.95.25-3.56.75-.61.5-.94,1.41-.98,2.71h10.98v3.84h-10.98c.05,1.32.35,2.22.91,2.71.56.48,1.76.73,3.59.73h6.47v3.84h-7.1Z"/>
      <path d="M136.12,29.22h4.83v6.68h4.32c2.71,0,4.67.53,5.88,1.6s1.82,2.78,1.82,5.15v11.68h-4.9v-11.12c0-1.26-.23-2.12-.69-2.58s-1.31-.68-2.55-.68h-3.88v14.38h-4.83v-25.1Z"/>
      <path d="M162.28,33.8h-5.11v-4.58h5.11v4.58ZM162.28,54.32h-5.11v-18.42h5.11v18.42Z"/>
      <path d="M176.52,50.38h5.17v3.94h-6.61c-1.67,0-3.05-.17-4.12-.52-1.08-.35-2.01-.91-2.81-1.68-.85-.84-1.52-1.87-2.01-3.08-.48-1.21-.73-2.5-.73-3.85,0-1.42.24-2.75.72-3.99.48-1.24,1.15-2.27,2.01-3.1.81-.77,1.76-1.33,2.84-1.68,1.09-.35,2.45-.52,4.09-.52h6.61v3.98h-5.17c-2.29,0-3.86.4-4.73,1.19s-1.3,2.17-1.3,4.12c0,1.13.18,2.06.53,2.8.35.74.9,1.34,1.64,1.79.36.22.79.37,1.27.46.48.09,1.35.14,2.59.14Z"/>
      <path d="M189.9,54.32h-5.07v-25.1h5.07v25.1Z"/>
      <path d="M202.28,54.32c-3.05,0-5.36-.78-6.92-2.33-1.57-1.55-2.35-3.84-2.35-6.87s.79-5.32,2.36-6.88c1.57-1.56,3.88-2.34,6.92-2.34h7.1v3.84h-6.44c-1.76,0-2.95.25-3.56.75-.61.5-.94,1.41-.98,2.71h10.98v3.84h-10.98c.05,1.32.35,2.22.91,2.71.56.48,1.76.73,3.59.73h6.47v3.84h-7.1Z"/>
      <path d="M85.48,85.83v-4.44h12.48v14.89h-11.35c-2.09,0-3.7-.17-4.82-.51-1.12-.34-2.17-.9-3.15-1.69-1.29-1.02-2.25-2.36-2.89-4-.64-1.64-.96-3.61-.96-5.9,0-4.43.96-7.7,2.89-9.82s4.91-3.18,8.94-3.18h11.35v4.32h-11.35c-2.07,0-3.58.67-4.53,2.01-.95,1.34-1.43,3.48-1.43,6.42,0,2.74.47,4.73,1.42,5.96.94,1.23,2.46,1.84,4.54,1.84h5.94v-5.91h-7.07Z"/>
      <path d="M101.82,77.86h8.18c1.91,0,3.25.34,4.02,1.03.77.69,1.15,1.89,1.15,3.61v3.07h-4.64v-2.37c0-.72-.13-1.2-.38-1.44-.26-.24-.84-.37-1.75-.37h-1.71v14.89h-4.87v-18.42Z"/>
      <path d="M118.64,77.86h9.97c2.51,0,4.41.58,5.69,1.73,1.27,1.16,1.91,2.87,1.91,5.15v11.54h-13.08c-1.83,0-3.24-.46-4.23-1.38s-1.48-2.23-1.48-3.93c0-2.09.57-3.6,1.7-4.51,1.13-.91,3.01-1.37,5.64-1.37h6.4v-.46c0-1.09-.32-1.86-.96-2.3-.64-.44-1.79-.67-3.44-.67h-8.13v-3.81ZM125.11,92.58h6.1v-3.81h-5.74c-1.14,0-1.92.15-2.36.46-.43.31-.65.84-.65,1.61,0,.65.17,1.1.52,1.36.35.26,1.06.38,2.12.38Z"/>
      <path d="M140.49,77.86h9.37c2.82,0,5.03.83,6.61,2.49s2.37,3.98,2.37,6.95c0,1.22-.17,2.34-.5,3.35s-.83,1.95-1.5,2.79c-.8,1.01-1.75,1.74-2.87,2.18-1.12.44-2.6.66-4.44.66h-4.18v6.68h-4.87v-25.1ZM145.36,81.84v10.5h2.97c1.97,0,3.36-.42,4.18-1.25s1.23-2.21,1.23-4.15-.38-3.18-1.13-3.95-2.05-1.15-3.91-1.15h-3.35Z"/>
      <path d="M161.82,71.19h4.83v6.68h4.32c2.71,0,4.67.53,5.88,1.6s1.82,2.78,1.82,5.15v11.68h-4.9v-11.12c0-1.26-.23-2.12-.69-2.58s-1.31-.68-2.55-.68h-3.88v14.38h-4.83v-25.1Z"/>
      <path d="M187.97,75.76h-5.11v-4.58h5.11v4.58ZM187.97,96.28h-5.11v-18.42h5.11v18.42Z"/>
      <path d="M202.21,92.34h5.17v3.94h-6.61c-1.67,0-3.05-.17-4.12-.52-1.08-.35-2.01-.91-2.81-1.68-.85-.84-1.52-1.87-2.01-3.08-.48-1.21-.73-2.5-.73-3.85,0-1.42.24-2.75.72-3.99.48-1.24,1.15-2.27,2.01-3.1.81-.77,1.76-1.33,2.84-1.68,1.09-.35,2.45-.52,4.09-.52h6.61v3.98h-5.17c-2.29,0-3.86.4-4.73,1.19s-1.3,2.17-1.3,4.12c0,1.13.18,2.06.53,2.8.35.74.9,1.34,1.64,1.79.36.22.79.37,1.27.46.48.09,1.35.14,2.59.14Z"/>
      <path d="M210.31,92.44h10.26c.91,0,1.57-.14,1.99-.43.42-.28.62-.74.62-1.37s-.21-1.08-.63-1.37-1.08-.44-1.98-.44h-4.2c-2.49,0-4.18-.38-5.05-1.14-.88-.76-1.31-2.12-1.31-4.06s.53-3.44,1.59-4.37,2.7-1.4,4.92-1.4h10.45v3.84h-8.59c-1.4,0-2.31.12-2.73.37s-.63.68-.63,1.31c0,.57.19.99.56,1.25.37.27.95.4,1.75.4h4.4c2.01,0,3.55.47,4.61,1.41,1.06.94,1.59,2.3,1.59,4.07s-.47,3.1-1.41,4.17c-.94,1.07-2.15,1.6-3.63,1.6h-12.57v-3.84Z"/>
    </g>
  </g>
</svg>